<?xml version="1.0" encoding="UTF-8"?>
<svg id="_레이어_2" data-name="레이어 2" xmlns="http://www.w3.org/2000/svg" viewBox="0 0 774.61 304.29">
  <defs>
    <style>
      .cls-1, .cls-2 {
        stroke-width: 0px;
      }

      .cls-2 {
        fill: #3e88ff;
      }
    </style>
  </defs>
  <g id="_레이어_1-2" data-name="레이어 1">
    <path class="cls-2" d="m252.42,137.71c-40.74,0-73.77,31.66-73.77,70.72,0,29.49,18.83,54.74,45.59,65.35,4.62,1.83,7.18,6.79,5.79,11.56l-2.99,10.29c-1.42,4.86,2.81,9.51,7.77,8.54,14.17-2.79,39.77-10.21,60.56-29.32,24.22-22.27,30.82-45.91,30.82-66.41,0-39.05-33.03-70.72-73.77-70.72Z"/>
    <path class="cls-1" d="m252.69.76c-46.27,0-83.78,37.51-83.78,83.78,0,22.69,9.04,43.26,23.69,58.35,12.24-10.51,27.5-17.85,44.37-20.7-13.12-6.4-22.26-20.51-22.26-36.94,0-22.43,17-40.61,37.98-40.61s37.98,18.18,37.98,40.61c0,16.43-9.14,30.54-22.26,36.94,16.87,2.85,32.13,10.19,44.37,20.7,14.65-15.09,23.69-35.66,23.69-58.35C336.47,38.26,298.96.76,252.69.76Z"/>
    <path class="cls-1" d="m86.22,215.56c-16.67,0-31.52-3.4-44.55-10.2-13.03-6.8-23.23-16.24-30.61-28.31-7.38-12.07-11.06-25.77-11.06-41.1s3.69-29.27,11.06-41.24c7.37-11.97,17.58-21.36,30.61-28.17,13.03-6.8,27.88-10.2,44.55-10.2s30.47,3.41,42.54,10.2c12.07,6.81,20.98,16.53,26.73,29.17l-34.77,18.68c-4.02-7.28-9.05-12.65-15.09-16.09-6.04-3.45-12.6-5.17-19.69-5.17-7.67,0-14.56,1.72-20.69,5.17-6.13,3.45-10.97,8.33-14.51,14.66-3.55,6.32-5.32,13.99-5.32,22.99s1.77,16.67,5.32,22.99c3.54,6.33,8.38,11.21,14.51,14.66,6.13,3.45,13.03,5.17,20.69,5.17,7.09,0,13.65-1.68,19.69-5.03,6.04-3.35,11.06-8.77,15.09-16.24l34.77,18.97c-5.75,12.46-14.66,22.09-26.73,28.88-12.07,6.81-26.25,10.2-42.54,10.2Z"/>
    <path class="cls-1" d="m423.32,215.56c-14.56,0-27.69-3.31-39.37-9.91-11.69-6.61-20.94-15.85-27.73-27.74-6.8-11.88-10.2-25.87-10.2-41.96s3.4-30.37,10.2-42.25c6.8-11.88,16.04-21.07,27.73-27.59,11.68-6.51,24.81-9.77,39.37-9.77,13.03,0,24.43,2.88,34.2,8.62,9.77,5.75,17.34,14.47,22.7,26.15,5.36,11.69,8.05,26.63,8.05,44.84s-2.59,32.91-7.76,44.69c-5.17,11.78-12.6,20.55-22.27,26.3-9.68,5.75-21.32,8.62-34.92,8.62Zm7.76-36.79c7.28,0,13.89-1.73,19.83-5.17,5.94-3.45,10.68-8.38,14.23-14.8,3.54-6.42,5.32-14.03,5.32-22.85s-1.77-16.67-5.32-22.99c-3.55-6.32-8.29-11.21-14.23-14.66-5.94-3.45-12.55-5.17-19.83-5.17s-14.18,1.72-20.12,5.17c-5.94,3.45-10.69,8.33-14.23,14.66-3.55,6.32-5.32,13.99-5.32,22.99s1.77,16.43,5.32,22.85c3.54,6.42,8.29,11.35,14.23,14.8,5.94,3.45,12.65,5.17,20.12,5.17Zm40.52,34.49v-31.62l.86-45.99-2.88-45.7V0h44.84v213.26h-42.82Z"/>
    <path class="cls-1" d="m545.38,213.26V0h44.84v213.26h-44.84Z"/>
    <path class="cls-1" d="m699.89,215.56c-17.63,0-33.1-3.45-46.42-10.35-13.32-6.9-23.62-16.33-30.9-28.31-7.28-11.97-10.92-25.62-10.92-40.95s3.59-29.27,10.78-41.24c7.18-11.97,17-21.36,29.46-28.17,12.45-6.8,26.54-10.2,42.25-10.2s28.79,3.21,40.95,9.63c12.17,6.42,21.79,15.62,28.88,27.59,7.09,11.98,10.63,26.3,10.63,42.97,0,1.72-.1,3.69-.29,5.89-.19,2.2-.39,4.27-.58,6.18h-125.6v-26.16h102.03l-17.24,7.76c0-8.05-1.63-15.04-4.88-20.98-3.26-5.94-7.76-10.58-13.51-13.94-5.75-3.35-12.46-5.03-20.12-5.03s-14.42,1.68-20.26,5.03c-5.85,3.35-10.4,8.05-13.65,14.08-3.26,6.04-4.89,13.18-4.89,21.41v6.9c0,8.43,1.87,15.86,5.6,22.27,3.74,6.42,9,11.31,15.81,14.66,6.8,3.35,14.8,5.03,24,5.03,8.23,0,15.47-1.24,21.7-3.74,6.22-2.48,11.93-6.22,17.1-11.21l23.86,25.87c-7.09,8.05-16,14.23-26.73,18.54-10.73,4.31-23.09,6.47-37.08,6.47Z"/>
  </g>
</svg>